<svg width="20" height="20" viewBox="0 0 20 20" fill="none" xmlns="http://www.w3.org/2000/svg">
<path d="M8.70771 6.22498C8.54938 6.22498 8.39102 6.16667 8.26602 6.04167L5.60768 3.38333L2.94935 6.04167C2.70768 6.28333 2.30768 6.28333 2.06602 6.04167C1.82435 5.8 1.82435 5.4 2.06602 5.15834L5.16604 2.05831C5.28271 1.94164 5.44102 1.875 5.60768 1.875C5.77435 1.875 5.93271 1.94164 6.04937 2.05831L9.14935 5.15834C9.39102 5.4 9.39102 5.8 9.14935 6.04167C9.02435 6.16667 8.86604 6.22498 8.70771 6.22498Z" fill="#292D32"/>
<path d="M5.60742 18.125C5.26576 18.125 4.98242 17.8417 4.98242 17.5V2.5C4.98242 2.15833 5.26576 1.875 5.60742 1.875C5.94909 1.875 6.23242 2.15833 6.23242 2.5V17.5C6.23242 17.8417 5.94909 18.125 5.60742 18.125Z" fill="#292D32"/>
<path d="M14.4007 18.1253C14.234 18.1253 14.0756 18.0586 13.959 17.942L10.859 14.8419C10.6173 14.6003 10.6173 14.2003 10.859 13.9586C11.1007 13.7169 11.5006 13.7169 11.7423 13.9586L14.4007 16.6169L17.0589 13.9586C17.3006 13.7169 17.7007 13.7169 17.9423 13.9586C18.184 14.2003 18.184 14.6003 17.9423 14.8419L14.8423 17.942C14.7256 18.0586 14.559 18.1253 14.4007 18.1253Z" fill="#292D32"/>
<path d="M14.3926 18.125C14.0509 18.125 13.7676 17.8417 13.7676 17.5V2.5C13.7676 2.15833 14.0509 1.875 14.3926 1.875C14.7342 1.875 15.0176 2.15833 15.0176 2.5V17.5C15.0176 17.8417 14.7426 18.125 14.3926 18.125Z" fill="#292D32"/>
</svg>
