<svg width="25" height="25" viewBox="0 0 25 25" fill="none" xmlns="http://www.w3.org/2000/svg">
<path d="M5.68988 6.87994C5.49988 6.87994 5.29988 6.79994 5.15988 6.65994C4.86988 6.36994 4.86988 5.88994 5.15988 5.59994L8.78988 1.96994C9.07988 1.67994 9.55988 1.67994 9.84988 1.96994C10.1399 2.25994 10.1399 2.73994 9.84988 3.02994L6.21988 6.65994C6.06988 6.79994 5.87988 6.87994 5.68988 6.87994Z" fill="#22252C"/>
<path d="M19.3101 6.87994C19.1201 6.87994 18.9301 6.80994 18.7801 6.65994L15.1501 3.02994C14.8601 2.73994 14.8601 2.25994 15.1501 1.96994C15.4401 1.67994 15.9201 1.67994 16.2101 1.96994L19.8401 5.59994C20.1301 5.88994 20.1301 6.36994 19.8401 6.65994C19.7001 6.79994 19.5001 6.87994 19.3101 6.87994Z" fill="#22252C"/>
<path d="M20.71 11.1001C20.64 11.1001 20.57 11.1001 20.5 11.1001H20.27H4.5C3.8 11.1101 3 11.1101 2.42 10.5301C1.96 10.0801 1.75 9.3801 1.75 8.3501C1.75 5.6001 3.76 5.6001 4.72 5.6001H20.28C21.24 5.6001 23.25 5.6001 23.25 8.3501C23.25 9.3901 23.04 10.0801 22.58 10.5301C22.06 11.0501 21.36 11.1001 20.71 11.1001ZM4.72 9.6001H20.51C20.96 9.6101 21.38 9.6101 21.52 9.4701C21.59 9.4001 21.74 9.1601 21.74 8.3501C21.74 7.2201 21.46 7.1001 20.27 7.1001H4.72C3.53 7.1001 3.25 7.2201 3.25 8.3501C3.25 9.1601 3.41 9.4001 3.47 9.4701C3.61 9.6001 4.04 9.6001 4.48 9.6001H4.72Z" fill="#22252C"/>
<path d="M10.2598 18.8C9.84977 18.8 9.50977 18.46 9.50977 18.05V14.5C9.50977 14.09 9.84977 13.75 10.2598 13.75C10.6698 13.75 11.0098 14.09 11.0098 14.5V18.05C11.0098 18.47 10.6698 18.8 10.2598 18.8Z" fill="#22252C"/>
<path d="M14.8599 18.8C14.4499 18.8 14.1099 18.46 14.1099 18.05V14.5C14.1099 14.09 14.4499 13.75 14.8599 13.75C15.2699 13.75 15.6099 14.09 15.6099 14.5V18.05C15.6099 18.47 15.2699 18.8 14.8599 18.8Z" fill="#22252C"/>
<path d="M15.3902 23.2502H9.36024C5.78024 23.2502 4.98024 21.1202 4.67024 19.2702L3.26024 10.6202C3.19024 10.2102 3.47024 9.83024 3.88024 9.76024C4.29024 9.69024 4.67024 9.97024 4.74024 10.3802L6.15024 19.0202C6.44024 20.7902 7.04024 21.7502 9.36024 21.7502H15.3902C17.9602 21.7502 18.2502 20.8502 18.5802 19.1102L20.2602 10.3602C20.3402 9.95024 20.7302 9.68024 21.1402 9.77024C21.5502 9.85024 21.8102 10.2402 21.7302 10.6502L20.0502 19.4002C19.6602 21.4302 19.0102 23.2502 15.3902 23.2502Z" fill="#22252C"/>
</svg>
