<svg width="29" height="24" viewBox="0 0 29 24" fill="none" xmlns="http://www.w3.org/2000/svg">
<path d="M27.1874 11.1006L27.4069 11.1182C27.9023 11.2022 28.2742 11.5652 28.2742 12C28.2742 12.4348 27.9023 12.7978 27.4069 12.8818L27.1874 12.8994H1.81238C1.21177 12.8994 0.725586 12.4971 0.725586 12C0.725586 11.5029 1.21177 11.1006 1.81238 11.1006H27.1874Z" fill="#51526C"/>
<path d="M27.1874 20.1006L27.4069 20.1182C27.9023 20.2022 28.2742 20.5652 28.2742 21C28.2742 21.4348 27.9023 21.7978 27.4069 21.8818L27.1874 21.8994H1.81238C1.21177 21.8994 0.725586 21.4971 0.725586 21C0.725586 20.5029 1.21177 20.1006 1.81238 20.1006H27.1874Z" fill="#51526C"/>
<path d="M27.1874 2.10059L27.4069 2.11816C27.9023 2.20217 28.2742 2.56516 28.2742 3C28.2742 3.43484 27.9023 3.79783 27.4069 3.88184L27.1874 3.89941H1.81238C1.21177 3.89941 0.725586 3.49706 0.725586 3C0.725586 2.50294 1.21177 2.10059 1.81238 2.10059H27.1874Z" fill="#51526C"/>
</svg>
