<svg width="20" height="20" viewBox="0 0 20 20" fill="none" xmlns="http://www.w3.org/2000/svg">
<path d="M18.3333 15.208H12.5C12.1583 15.208 11.875 14.9247 11.875 14.583C11.875 14.2413 12.1583 13.958 12.5 13.958H18.3333C18.675 13.958 18.9583 14.2413 18.9583 14.583C18.9583 14.9247 18.675 15.208 18.3333 15.208Z" fill="#292D32"/>
<path d="M4.16602 15.208H1.66602C1.32435 15.208 1.04102 14.9247 1.04102 14.583C1.04102 14.2413 1.32435 13.958 1.66602 13.958H4.16602C4.50768 13.958 4.79102 14.2413 4.79102 14.583C4.79102 14.9247 4.50768 15.208 4.16602 15.208Z" fill="#292D32"/>
<path d="M18.334 6.04199H15.834C15.4923 6.04199 15.209 5.75866 15.209 5.41699C15.209 5.07533 15.4923 4.79199 15.834 4.79199H18.334C18.6757 4.79199 18.959 5.07533 18.959 5.41699C18.959 5.75866 18.6757 6.04199 18.334 6.04199Z" fill="#292D32"/>
<path d="M7.49935 6.04199H1.66602C1.32435 6.04199 1.04102 5.75866 1.04102 5.41699C1.04102 5.07533 1.32435 4.79199 1.66602 4.79199H7.49935C7.84102 4.79199 8.12435 5.07533 8.12435 5.41699C8.12435 5.75866 7.84102 6.04199 7.49935 6.04199Z" fill="#292D32"/>
<path d="M10.8327 17.708H5.83268C4.39935 17.708 3.54102 16.8497 3.54102 15.4163V13.7497C3.54102 12.3163 4.39935 11.458 5.83268 11.458H10.8327C12.266 11.458 13.1243 12.3163 13.1243 13.7497V15.4163C13.1243 16.8497 12.266 17.708 10.8327 17.708ZM5.83268 12.708C5.09102 12.708 4.79102 13.008 4.79102 13.7497V15.4163C4.79102 16.158 5.09102 16.458 5.83268 16.458H10.8327C11.5743 16.458 11.8743 16.158 11.8743 15.4163V13.7497C11.8743 13.008 11.5743 12.708 10.8327 12.708H5.83268Z" fill="#292D32"/>
<path d="M14.1667 8.54199H9.16667C7.73333 8.54199 6.875 7.68366 6.875 6.25033V4.58366C6.875 3.15033 7.73333 2.29199 9.16667 2.29199H14.1667C15.6 2.29199 16.4583 3.15033 16.4583 4.58366V6.25033C16.4583 7.68366 15.6 8.54199 14.1667 8.54199ZM9.16667 3.54199C8.425 3.54199 8.125 3.84199 8.125 4.58366V6.25033C8.125 6.99199 8.425 7.29199 9.16667 7.29199H14.1667C14.9083 7.29199 15.2083 6.99199 15.2083 6.25033V4.58366C15.2083 3.84199 14.9083 3.54199 14.1667 3.54199H9.16667Z" fill="#292D32"/>
</svg>
