<svg width="24" height="24" viewBox="0 0 24 24" fill="none" xmlns="http://www.w3.org/2000/svg">
<path d="M11.625 20.2495H19.5312C19.7219 20.2495 19.9047 20.1738 20.0395 20.039C20.1743 19.9042 20.25 19.7214 20.25 19.5308V11.6245C20.25 10.4918 20.0269 9.37029 19.5935 8.32386C19.16 7.27742 18.5247 6.32661 17.7238 5.52571C16.9229 4.72481 15.9721 4.08949 14.9257 3.65605C13.8792 3.2226 12.7577 2.99951 11.625 2.99951H11.625C10.4923 2.99951 9.37079 3.2226 8.32436 3.65605C7.27792 4.0895 6.32711 4.72481 5.5262 5.52572C4.7253 6.32662 4.08999 7.27743 3.65654 8.32387C3.22309 9.3703 3 10.4919 3 11.6245V11.6245C3 13.912 3.9087 16.1058 5.5262 17.7233C7.1437 19.3408 9.3375 20.2495 11.625 20.2495Z" stroke="#282828" stroke-width="1.5" stroke-linecap="round" stroke-linejoin="round"/>
<path d="M11.625 13.125C11.0037 13.125 10.5 12.6213 10.5 12C10.5 11.3787 11.0037 10.875 11.625 10.875C12.2463 10.875 12.75 11.3787 12.75 12C12.75 12.6213 12.2463 13.125 11.625 13.125Z" fill="#282828"/>
<path d="M16.125 13.125C15.5037 13.125 15 12.6213 15 12C15 11.3787 15.5037 10.875 16.125 10.875C16.7463 10.875 17.25 11.3787 17.25 12C17.25 12.6213 16.7463 13.125 16.125 13.125Z" fill="#282828"/>
<path d="M7.125 13.125C6.50368 13.125 6 12.6213 6 12C6 11.3787 6.50368 10.875 7.125 10.875C7.74632 10.875 8.25 11.3787 8.25 12C8.25 12.6213 7.74632 13.125 7.125 13.125Z" fill="#282828"/>
</svg>
