<svg width="25" height="25" viewBox="0 0 25 25" fill="none" xmlns="http://www.w3.org/2000/svg">
<path d="M22.5 23.25H2.5C2.09 23.25 1.75 22.91 1.75 22.5C1.75 22.09 2.09 21.75 2.5 21.75H22.5C22.91 21.75 23.25 22.09 23.25 22.5C23.25 22.91 22.91 23.25 22.5 23.25Z" fill="#22252C"/>
<path d="M4.2002 22.4997H2.7002L2.7502 10.4697C2.7502 9.61971 3.1402 8.82974 3.8102 8.30974L10.8102 2.85973C11.8002 2.08973 13.1902 2.08973 14.1902 2.85973L21.1902 8.29973C21.8502 8.81973 22.2502 9.62971 22.2502 10.4697V22.4997H20.7502V10.4797C20.7502 10.0997 20.5702 9.72973 20.2702 9.48973L13.2702 4.04973C12.8202 3.69973 12.1902 3.69973 11.7302 4.04973L4.7302 9.49974C4.4302 9.72974 4.2502 10.0997 4.2502 10.4797L4.2002 22.4997Z" fill="#22252C"/>
<path d="M17.5 23.25H7.5C7.09 23.25 6.75 22.91 6.75 22.5V13C6.75 11.76 7.76 10.75 9 10.75H16C17.24 10.75 18.25 11.76 18.25 13V22.5C18.25 22.91 17.91 23.25 17.5 23.25ZM8.25 21.75H16.75V13C16.75 12.59 16.41 12.25 16 12.25H9C8.59 12.25 8.25 12.59 8.25 13V21.75Z" fill="#22252C"/>
<path d="M10.5 19C10.09 19 9.75 18.66 9.75 18.25V16.75C9.75 16.34 10.09 16 10.5 16C10.91 16 11.25 16.34 11.25 16.75V18.25C11.25 18.66 10.91 19 10.5 19Z" fill="#22252C"/>
<path d="M14 8.75H11C10.59 8.75 10.25 8.41 10.25 8C10.25 7.59 10.59 7.25 11 7.25H14C14.41 7.25 14.75 7.59 14.75 8C14.75 8.41 14.41 8.75 14 8.75Z" fill="#22252C"/>
</svg>
