<svg width="28" height="28" viewBox="0 0 28 28" fill="none" xmlns="http://www.w3.org/2000/svg">
<g clip-path="url(#clip0_742_3352)">
<path d="M20.6505 4.02326L20.0358 5.04651C24.2274 6.91245 25.904 10.2531 25.904 13.8646C25.904 15.6703 25.4569 17.2955 24.5627 17.2955C21.6565 17.2955 15.453 17.2955 13.5807 17.2955C12.0718 17.2955 11.6526 16.7237 12.3233 15.2791C13.5249 12.7209 17.1296 7.84542 19.3372 4.92613C19.6725 4.50479 19.924 3.81259 18.7504 3.48153C17.5488 3.15048 15.6486 3 13.9999 3C5.75645 3 0 7.81532 0 13.985C0 19.673 4.97402 25 13.972 25C17.94 25 22.8302 23.7962 25.5966 20.4254H23.2214C20.5388 23.0438 17.0178 23.6457 13.9999 23.6457C6.73448 23.6457 2.15168 19.5828 2.15168 13.985C2.15168 8.80848 7.34925 4.17373 13.9161 4.17373C14.6985 4.17373 14.95 4.35431 14.1396 5.46785C12.463 7.72503 9.47299 12.1491 8.04785 14.7674C6.53888 17.5663 8.07579 19.8235 11.457 19.8235C13.8602 19.8235 22.439 19.8235 25.1775 19.8235C26.0158 19.8235 26.5188 19.3119 26.9938 18.3488C27.385 17.5964 27.9998 16.0616 27.9998 13.985C28.0277 9.80164 25.1216 5.94938 20.6505 4.02326Z" fill="#22252C"/>
</g>
<defs>
<clipPath id="clip0_742_3352">
<rect width="28" height="28" fill="white"/>
</clipPath>
</defs>
</svg>
