<svg width="28" height="28" viewBox="0 0 28 28" fill="none" xmlns="http://www.w3.org/2000/svg">
<g clip-path="url(#clip0_742_16261)">
<path fill-rule="evenodd" clip-rule="evenodd" d="M13.997 26.9992C6.73826 26.9962 0.855469 21.1754 0.855469 13.9983C0.855469 6.81792 6.7416 0.997294 13.997 1.00049C21.2624 1.00049 27.1452 6.82126 27.1452 13.9983C27.1452 21.1786 21.259 26.9992 13.997 26.9992ZM3.21844 20.2341L3.45376 20.0511C2.77394 18.8059 2.51261 17.9757 2.21512 17.0542C2.18897 16.9855 2.1727 16.9396 2.14321 16.9004C2.1236 16.9525 2.13348 16.9986 2.13667 17.0572C2.32624 18.0639 2.78381 19.3322 3.21844 20.2341ZM14.18 2.29143L15.9677 12.6878L14.0984 13.7826L14.0363 2.29477C14.0363 2.1575 13.9448 2.1575 13.9252 2.29477L12.8695 13.1911L12.0852 12.7369L13.765 2.29491C7.25467 2.33399 2.11372 7.55991 2.11372 14.0179C2.11372 16.0573 2.75433 18.2013 3.67586 19.8712L11.8792 13.0505L12.6667 13.5014L3.45695 20.1196C3.2347 20.2765 3.30007 20.3518 3.54513 20.2178L13.8302 14.2761V16.4136L3.89797 20.2046C5.97651 23.6004 9.6631 25.7639 13.9641 25.7639C18.2555 25.7639 22.0041 23.5972 24.0826 20.208L14.1668 16.4201V14.2826L24.0598 19.9889C24.2851 20.1131 24.3506 20.0445 24.1381 19.8942L15.3305 13.5049L16.1181 13.0538L24.3149 19.8811C25.2562 18.2013 25.877 16.0541 25.877 13.9983C25.877 7.62194 20.576 2.46472 14.18 2.29143ZM26.5144 11.6451C26.5371 11.7073 26.5567 11.7596 26.5862 11.7954C26.6058 11.7431 26.5895 11.6974 26.5862 11.6386C25.5044 5.72962 20.3799 1.31425 14.0231 1.31425C6.90822 1.31425 1.15282 7.08273 1.15282 14.1943C1.15282 15.8741 1.58105 17.4757 2.16282 18.943C2.43083 19.6194 3.287 21.1622 3.49618 21.4661C3.54193 21.5313 3.56154 21.564 3.61384 21.6033C3.61064 21.5412 3.60745 21.5117 3.57462 21.4366C3.53859 21.3744 2.80981 19.9854 2.38827 18.9526C2.02874 18.0638 1.58105 16.2926 1.58105 14.2399C1.58105 7.34071 7.17957 1.74219 14.0786 1.74219C17.6869 1.74539 21.0793 3.50697 23.1577 5.7883C24.7364 7.52069 25.5535 8.68423 26.5144 11.6451ZM3.62357 20.3059L3.33929 20.4106C5.18585 23.9403 9.05867 26.5059 13.997 26.5059C21.0041 26.5093 26.6058 20.8387 26.6058 13.9983C26.6058 12.3249 26.1221 11.2988 25.8509 10.5569C25.6517 10.0013 25.2234 9.1482 25.0338 8.79855C24.9946 8.72985 24.9686 8.7005 24.9163 8.65809C24.9193 8.72011 24.9228 8.75614 24.9619 8.82485C25.1092 9.11566 25.4357 9.84778 25.6677 10.5831C25.9815 11.5603 26.1776 12.6551 26.1776 13.9985C26.1776 16.1325 25.5078 18.3158 24.5207 20.0543C24.5764 20.1981 24.5238 20.2701 24.3573 20.3159C22.2034 23.7804 18.3632 26.0483 13.9936 26.0451C9.88869 26.0451 6.60738 23.8455 5.57138 22.705C4.72828 21.7766 4.10409 21.0872 3.62357 20.3059ZM13.3466 13.4689L13.8892 13.7858L13.9579 5.35049C13.9579 5.18053 13.9057 5.17399 13.8925 5.34395L13.3466 13.4689ZM14.2943 14.1061L21.5923 18.3777C21.723 18.4529 21.7491 18.4072 21.6252 18.3255L14.8501 13.7858L14.2943 14.1061ZM13.1832 13.812L11.3497 15.3122C11.2485 15.3971 11.2942 15.4363 11.4151 15.3679L13.7028 14.0997L13.1832 13.812Z" fill="#22252C"/>
</g>
<defs>
<clipPath id="clip0_742_16261">
<rect width="28" height="28" fill="white"/>
</clipPath>
</defs>
</svg>
